<?xml version="1.0" standalone="no"?>
<!DOCTYPE svg PUBLIC "-//W3C//DTD SVG 20010904//EN"
 "http://www.w3.org/TR/2001/REC-SVG-20010904/DTD/svg10.dtd">
<svg version="1.0" xmlns="http://www.w3.org/2000/svg"
 width="512.000000pt" height="512.000000pt" viewBox="0 0 512.000000 512.000000"
 preserveAspectRatio="xMidYMid meet">

<g transform="translate(0.000000,512.000000) scale(0.100000,-0.100000)"
fill="#000000" stroke="none">
<path d="M1898 5107 c-49 -19 -53 -21 -527 -320 -234 -148 -424 -274 -437
-291 -14 -17 -182 -348 -374 -736 -369 -743 -369 -744 -336 -809 11 -20 110
-81 405 -250 l391 -224 0 -1184 c0 -1303 -3 -1233 62 -1273 33 -20 46 -20
1478 -20 1432 0 1445 0 1478 20 61 37 62 45 62 508 0 409 -1 420 -21 446 -26
33 -79 36 -109 6 -19 -19 -20 -33 -20 -425 l0 -405 -1390 0 -1390 0 0 1650 c0
1637 0 1650 -20 1670 -30 30 -83 27 -109 -6 -20 -26 -21 -37 -21 -420 l0 -393
-322 185 c-178 101 -324 188 -326 192 -1 4 150 316 337 693 l340 684 306 193
c168 106 310 190 315 187 6 -3 10 -14 10 -24 0 -31 108 -234 151 -283 34 -40
46 -48 75 -48 41 0 74 29 74 67 0 15 -17 51 -39 83 -54 77 -109 188 -123 249
-13 57 -13 57 65 101 l37 21 0 -25 c0 -32 43 -150 77 -212 15 -27 63 -86 108
-131 66 -66 98 -90 166 -123 195 -93 387 -93 579 1 67 33 102 59 166 123 44
45 92 103 107 130 34 61 77 180 77 212 0 31 6 30 67 -8 l51 -33 -22 -70 c-41
-130 -92 -212 -196 -315 -80 -81 -109 -103 -190 -143 -135 -67 -199 -82 -355
-82 -143 0 -222 18 -337 76 -82 42 -117 38 -144 -13 -35 -68 38 -125 233 -185
79 -24 105 -26 248 -27 179 -1 249 13 390 78 228 105 413 312 489 544 12 36
21 50 30 45 7 -5 147 -93 310 -198 l298 -190 339 -684 c187 -377 338 -689 337
-693 -2 -4 -148 -91 -326 -192 l-322 -185 0 393 c0 383 -1 394 -21 420 -26 33
-79 36 -109 6 -20 -20 -20 -33 -20 -1145 0 -1112 0 -1125 20 -1145 30 -30 83
-27 109 6 21 26 21 34 21 659 l0 632 388 222 c287 164 393 229 405 250 38 65
39 62 -333 811 -192 388 -360 719 -374 736 -31 39 -875 578 -940 600 -85 29
-163 16 -287 -48 -143 -74 -222 -93 -374 -92 -149 1 -229 22 -396 100 -101 47
-132 57 -188 61 -40 2 -80 -2 -103 -10z m230 -191 c156 -79 345 -121 507 -113
131 7 211 26 323 77 95 45 98 42 52 -56 -120 -251 -420 -352 -678 -226 -81 39
-181 141 -219 222 -31 66 -48 120 -38 120 3 0 27 -11 53 -24z"/>
<path d="M3145 3897 c-66 -54 -72 -56 -145 -63 -127 -11 -153 -37 -166 -163
-6 -68 -10 -78 -60 -144 -75 -99 -74 -130 8 -229 36 -43 41 -56 52 -138 15
-111 36 -138 120 -154 l54 -11 -69 -165 c-95 -224 -94 -219 -80 -233 8 -8 28
-7 79 7 37 10 71 18 76 19 5 1 27 -27 48 -63 39 -67 57 -81 75 -58 6 7 31 63
56 123 112 273 114 277 174 323 31 23 61 42 68 42 11 0 160 -339 152 -346 -1
-1 -28 4 -59 13 -31 9 -63 13 -71 10 -8 -3 -27 -28 -43 -56 -15 -28 -30 -48
-33 -45 -3 3 -20 40 -38 82 -29 71 -53 97 -67 74 -3 -5 15 -60 41 -121 56
-135 66 -139 119 -43 20 37 38 68 38 69 1 1 31 -6 67 -17 77 -24 95 -25 102
-6 3 8 -30 99 -73 203 l-79 188 55 11 c84 16 103 41 118 153 12 83 16 95 53
138 83 100 85 131 9 231 -50 66 -54 76 -61 144 -12 122 -42 150 -171 163 -67
6 -76 10 -134 57 -47 38 -73 52 -104 55 -39 5 -47 1 -111 -50z m170 -23 c81
-65 101 -75 181 -83 103 -12 119 -29 128 -134 8 -77 8 -77 84 -178 42 -56 39
-78 -26 -159 -46 -56 -50 -66 -57 -133 -11 -120 -21 -129 -140 -142 -70 -8
-82 -14 -153 -72 -70 -56 -95 -56 -165 1 -74 60 -85 65 -168 72 -98 10 -114
26 -124 125 -8 85 -13 95 -72 167 -23 30 -43 64 -43 77 0 13 24 55 54 94 51
68 54 75 61 148 10 105 31 127 134 136 73 6 103 18 151 63 37 34 82 55 105 48
11 -4 34 -17 50 -30z m-175 -934 c37 -30 73 -50 87 -50 20 0 24 -4 20 -17 -9
-30 -123 -303 -129 -308 -3 -3 -20 19 -37 50 -34 61 -41 63 -116 40 -27 -8
-50 -13 -52 -11 -2 2 15 48 38 102 22 54 54 132 71 172 16 39 36 72 43 72 7 0
41 -22 75 -50z"/>
<path d="M3190 3732 c0 -17 9 -20 73 -24 113 -8 200 -62 247 -155 21 -41 25
-62 25 -138 0 -101 -17 -145 -77 -204 -59 -58 -123 -84 -208 -85 -124 0 -216
59 -267 171 -61 133 -5 311 118 374 21 10 39 26 39 34 0 62 -138 -32 -186
-127 -59 -117 -54 -239 17 -348 136 -211 461 -194 574 31 87 171 25 370 -142
455 -46 23 -74 30 -135 33 -72 3 -78 2 -78 -17z"/>
<path d="M3266 3485 c-50 -47 -91 -85 -92 -85 -1 0 -16 14 -32 30 -44 44 -95
41 -120 -7 -17 -31 -7 -50 62 -120 90 -93 94 -92 244 59 129 129 140 150 102
188 -38 38 -68 26 -164 -65z m131 29 c4 -11 -27 -49 -103 -125 -60 -60 -113
-109 -119 -109 -14 0 -115 102 -115 117 0 32 32 24 66 -16 20 -22 41 -41 47
-41 7 0 55 43 107 95 52 52 98 95 103 95 4 0 10 -7 14 -16z"/>
</g>
</svg>
