<?xml version="1.0" standalone="no"?>
<!DOCTYPE svg PUBLIC "-//W3C//DTD SVG 20010904//EN"
 "http://www.w3.org/TR/2001/REC-SVG-20010904/DTD/svg10.dtd">
<svg version="1.0" xmlns="http://www.w3.org/2000/svg"
 width="512.000000pt" height="512.000000pt" viewBox="0 0 512.000000 512.000000"
 preserveAspectRatio="xMidYMid meet">

<g transform="translate(0.000000,512.000000) scale(0.100000,-0.100000)"
fill="#000000" stroke="none">
<path d="M2185 4793 c-345 -41 -570 -120 -826 -291 -472 -316 -750 -820 -776
-1405 l-6 -137 -33 -20 c-88 -55 -188 -200 -213 -310 -6 -27 -11 -224 -11
-500 0 -502 1 -518 63 -634 42 -81 138 -176 218 -215 102 -50 187 -63 391 -59
l176 3 43 30 c23 17 52 48 63 70 21 39 21 52 24 770 2 526 0 745 -8 784 -16
74 -65 126 -137 147 -30 9 -61 13 -70 10 -14 -6 -15 3 -10 81 15 211 116 471
252 650 58 77 184 200 268 264 153 114 356 200 547 233 132 23 697 23 826 1
402 -70 761 -337 943 -703 67 -134 131 -375 131 -494 0 -37 -1 -38 -35 -38
-77 0 -154 -61 -175 -139 -7 -27 -10 -280 -8 -783 3 -731 3 -744 24 -783 11
-22 40 -53 63 -70 41 -29 47 -30 173 -34 l131 -3 -6 -60 c-12 -134 -111 -268
-245 -331 l-67 -32 -373 0 -373 0 -23 56 c-42 104 -118 179 -224 220 -52 20
-79 23 -307 27 -144 2 -281 0 -324 -6 -146 -21 -264 -107 -313 -230 -18 -46
-22 -77 -23 -157 0 -92 3 -105 31 -165 52 -109 133 -175 252 -205 51 -13 111
-16 349 -13 274 3 291 4 345 26 103 41 193 144 232 265 5 16 31 17 364 17 400
0 422 3 552 68 178 89 310 296 310 486 l0 55 73 34 c175 82 297 225 342 402
22 86 22 810 0 904 -23 97 -80 196 -159 276 l-69 70 2 80 c6 259 -63 564 -183
810 -170 347 -444 623 -791 795 -207 102 -385 155 -607 179 -87 10 -719 13
-793 4z m790 -163 c555 -64 1022 -395 1260 -893 99 -207 143 -379 152 -593 l6
-142 -54 14 c-29 8 -72 14 -95 14 l-41 0 -7 88 c-19 256 -131 544 -292 753
-231 300 -560 496 -936 555 -140 22 -788 15 -898 -10 -296 -68 -530 -195 -735
-401 -248 -247 -395 -560 -423 -898 l-7 -82 -84 -5 -84 -5 7 103 c21 328 125
616 314 872 75 102 249 272 355 347 207 146 455 243 707 278 117 16 726 19
855 5z m-1841 -1776 c3 -9 6 -338 6 -733 0 -544 -3 -720 -12 -729 -17 -17
-296 -16 -369 2 -107 25 -194 94 -246 196 l-28 55 -3 466 c-3 451 -2 468 18
522 40 106 118 182 223 218 73 26 401 28 411 3z m3257 -26 c93 -46 168 -122
212 -215 l32 -68 3 -390 c4 -440 0 -468 -67 -573 -64 -98 -164 -166 -279 -191
-72 -15 -284 -15 -300 1 -9 9 -12 185 -12 729 0 395 3 725 6 734 6 15 25 16
168 13 l162 -3 75 -37z m-1581 -1899 c184 -39 243 -264 102 -391 -62 -56 -90
-60 -395 -56 l-272 3 -46 27 c-66 39 -102 98 -107 175 -5 73 10 123 51 169 34
40 76 64 127 75 58 11 484 10 540 -2z"/>
<path d="M2107 3998 c-16 -13 -34 -61 -82 -223 -15 -49 -33 -108 -40 -130 -7
-22 -28 -87 -45 -145 -56 -184 -72 -234 -85 -275 -8 -22 -26 -80 -40 -130 -15
-49 -33 -108 -41 -130 -7 -22 -27 -87 -45 -145 -46 -156 -68 -224 -105 -340
-39 -117 -50 -187 -35 -210 9 -13 69 -16 405 -20 l394 -5 -89 -200 c-254 -570
-379 -863 -379 -891 0 -22 7 -34 24 -43 48 -26 0 -73 684 666 210 227 390 421
399 431 26 27 102 109 243 262 69 74 148 160 176 190 29 30 64 68 78 83 31 33
34 77 8 100 -16 15 -65 17 -439 19 l-421 3 50 85 c28 47 112 189 186 315 74
127 145 246 157 265 93 145 235 401 235 423 0 58 9 57 -610 57 -438 0 -570 -3
-583 -12z m952 -243 c-43 -74 -116 -197 -160 -272 -170 -287 -208 -352 -297
-504 -51 -86 -92 -167 -92 -180 1 -56 -14 -54 432 -59 l413 -5 -205 -220
c-112 -121 -254 -274 -315 -340 -61 -66 -201 -217 -311 -335 -109 -118 -232
-249 -272 -290 l-72 -75 50 115 c28 63 62 140 75 170 13 30 71 163 129 294 58
132 106 250 106 262 0 52 -12 54 -433 54 -366 0 -389 1 -385 18 3 9 108 351
234 759 l229 743 477 0 477 0 -80 -135z"/>
</g>
</svg>
