<?xml version="1.0" standalone="no"?>
<!DOCTYPE svg PUBLIC "-//W3C//DTD SVG 20010904//EN"
 "http://www.w3.org/TR/2001/REC-SVG-20010904/DTD/svg10.dtd">
<svg version="1.0" xmlns="http://www.w3.org/2000/svg"
 width="512.000000pt" height="512.000000pt" viewBox="0 0 512.000000 512.000000"
 preserveAspectRatio="xMidYMid meet">

<g transform="translate(0.000000,512.000000) scale(0.100000,-0.100000)"
fill="#000000" stroke="none">
<path d="M1832 4734 c-183 -49 -324 -193 -367 -375 -12 -53 -15 -157 -15 -601
0 -354 4 -555 11 -590 36 -173 181 -332 347 -382 l61 -19 3 -282 c3 -262 4
-285 22 -304 12 -13 31 -21 50 -21 27 0 67 36 331 300 l300 300 520 0 c566 0
589 2 703 58 69 33 177 138 214 208 57 107 58 118 58 734 0 615 0 611 -58 725
-32 65 -143 175 -209 209 -114 57 -90 56 -1043 55 -724 0 -884 -3 -928 -15z
m1884 -157 c73 -34 142 -101 181 -177 l28 -55 0 -585 0 -585 -33 -67 c-40 -81
-110 -148 -190 -180 -57 -23 -61 -23 -624 -28 l-568 -5 -244 -244 -245 -245
-3 226 c-4 264 -3 261 -96 272 -126 14 -240 97 -296 216 l-31 65 -3 543 c-3
610 -2 622 66 722 43 64 140 134 205 148 25 6 387 9 917 9 l875 -2 61 -28z"/>
<path d="M2075 3945 c-87 -30 -149 -145 -126 -231 44 -160 222 -213 336 -100
87 88 84 213 -9 294 -57 50 -127 63 -201 37z m110 -150 c29 -28 31 -42 9 -73
-17 -25 -71 -31 -92 -10 -21 21 -15 75 10 92 31 22 45 20 73 -9z"/>
<path d="M2685 3941 c-102 -47 -150 -161 -109 -259 50 -122 191 -163 303 -89
104 69 108 246 9 320 -67 49 -136 59 -203 28z m113 -137 c26 -18 30 -65 6 -88
-23 -24 -70 -20 -88 6 -23 32 -20 54 10 77 32 25 43 26 72 5z"/>
<path d="M3315 3948 c-116 -41 -169 -172 -114 -286 56 -115 226 -143 316 -50
68 70 80 153 35 239 -45 87 -147 128 -237 97z m88 -139 c27 -15 37 -28 37 -53
0 -48 -70 -75 -104 -40 -24 23 -20 70 6 88 27 19 33 19 61 5z"/>
<path d="M569 1952 c-39 -20 -62 -41 -84 -77 l-30 -48 -3 -642 -2 -642 28 -54
c20 -39 41 -62 77 -84 l48 -30 321 -3 c361 -3 373 -1 439 66 20 20 43 55 50
77 l14 40 184 52 c101 28 200 52 219 52 19 1 252 -60 517 -134 265 -74 499
-135 520 -135 21 0 56 9 79 19 70 32 1566 1011 1612 1055 91 87 132 229 97
335 -35 105 -160 188 -270 179 -39 -4 -185 -65 -645 -272 -327 -148 -600 -270
-605 -272 -6 -2 -16 19 -22 47 -22 92 -91 177 -179 222 -17 9 -250 75 -517
146 l-487 131 -257 -71 c-187 -52 -258 -68 -261 -59 -10 28 -79 94 -117 111
-36 17 -72 19 -356 19 l-317 0 -53 -28z m692 -141 l29 -29 0 -607 0 -607 -29
-29 -29 -29 -294 0 c-308 1 -312 1 -336 47 -17 31 -17 1205 0 1236 24 46 28
46 336 47 l294 0 29 -29z m3199 7 c88 -45 91 -153 6 -243 -43 -46 -1545 -1030
-1588 -1040 -14 -3 -213 48 -508 131 -338 95 -500 136 -535 136 -28 0 -128
-22 -227 -50 l-178 -49 0 496 0 496 250 69 251 69 457 -122 c285 -76 473 -132
499 -147 26 -15 53 -43 69 -70 80 -137 -21 -314 -179 -314 -16 0 -240 56 -497
125 -256 69 -480 125 -497 125 -70 0 -91 -102 -26 -129 16 -6 239 -67 498
-136 309 -82 487 -125 520 -125 119 0 224 58 293 161 l43 64 632 287 c348 157
641 287 652 287 12 1 41 -9 65 -21z"/>
</g>
</svg>
