<?xml version="1.0" standalone="no"?>
<!DOCTYPE svg PUBLIC "-//W3C//DTD SVG 20010904//EN"
 "http://www.w3.org/TR/2001/REC-SVG-20010904/DTD/svg10.dtd">
<svg version="1.0" xmlns="http://www.w3.org/2000/svg"
 width="512.000000pt" height="512.000000pt" viewBox="0 0 512.000000 512.000000"
 preserveAspectRatio="xMidYMid meet">

<g transform="translate(0.000000,512.000000) scale(0.100000,-0.100000)"
fill="#000000" stroke="none">
<path d="M1470 4731 c-44 -14 -84 -38 -117 -73 -66 -69 -63 -23 -63 -932 l0
-824 -152 -4 c-170 -4 -201 -13 -265 -80 -60 -62 -63 -80 -63 -372 l0 -264
-152 -4 c-170 -4 -201 -13 -265 -80 -66 -68 -63 -35 -63 -811 l0 -705 -61 -4
c-49 -4 -66 -9 -80 -27 -28 -35 -25 -85 7 -110 l27 -21 2343 0 c1288 0 2350 3
2359 6 18 7 45 55 45 79 0 9 -13 30 -29 46 -25 24 -37 29 -80 29 l-51 0 0 688
c0 782 2 761 -75 837 -60 60 -114 75 -277 75 l-128 0 0 248 c0 294 -7 329 -75
397 -60 60 -114 75 -277 75 l-128 0 0 808 c0 916 3 880 -75 957 -79 79 -11 75
-1214 74 -586 0 -1077 -4 -1091 -8z m2191 -180 l29 -29 0 -1971 0 -1971 -280
0 -280 0 0 408 c0 471 -2 484 -75 557 -73 73 -94 76 -512 73 -345 -3 -359 -4
-398 -25 -22 -12 -54 -36 -72 -55 -63 -66 -63 -64 -63 -533 l0 -425 -280 0
-280 0 0 1971 c0 1375 3 1976 11 1990 6 11 20 24 32 29 12 5 496 9 1080 9
l1059 1 29 -29z m-2371 -2891 l0 -1080 -400 0 -400 0 0 694 c0 668 1 695 19
717 19 23 23 24 203 27 100 1 193 4 205 7 49 11 53 41 53 360 0 191 4 303 11
316 16 32 45 38 182 38 l127 1 0 -1080z m2851 1051 l29 -29 0 -311 0 -310 26
-20 c25 -20 40 -21 211 -21 l185 0 29 -29 29 -29 0 -691 0 -691 -400 0 -400 0
0 1080 0 1080 131 0 131 0 29 -29z m-1200 -1280 l29 -29 0 -411 0 -411 -400 0
-400 0 0 411 c0 271 4 417 11 430 6 11 20 24 32 29 12 5 174 9 360 9 l339 1
29 -29z"/>
<path d="M1733 4250 c-40 -16 -43 -38 -43 -319 l0 -270 26 -20 c26 -20 38 -21
330 -21 166 0 310 3 319 6 40 16 45 52 45 319 l0 257 -29 29 -29 29 -299 -1
c-164 0 -308 -4 -320 -9z m517 -310 l0 -160 -200 0 -200 0 0 160 0 160 200 0
200 0 0 -160z"/>
<path d="M2773 4250 c-40 -16 -43 -38 -43 -319 l0 -270 26 -20 c26 -20 38 -21
330 -21 166 0 310 3 319 6 40 16 45 52 45 319 l0 257 -29 29 -29 29 -299 -1
c-164 0 -308 -4 -320 -9z m517 -310 l0 -160 -200 0 -200 0 0 160 0 160 200 0
200 0 0 -160z"/>
<path d="M1733 3370 c-40 -16 -43 -38 -43 -319 l0 -270 26 -20 c26 -20 38 -21
330 -21 166 0 310 3 319 6 40 16 45 52 45 319 l0 257 -29 29 -29 29 -299 -1
c-164 0 -308 -4 -320 -9z m517 -310 l0 -160 -200 0 -200 0 0 160 0 160 200 0
200 0 0 -160z"/>
<path d="M2773 3370 c-40 -16 -43 -38 -43 -319 l0 -270 26 -20 c26 -20 38 -21
330 -21 166 0 310 3 319 6 40 16 45 52 45 319 l0 257 -29 29 -29 29 -299 -1
c-164 0 -308 -4 -320 -9z m517 -310 l0 -160 -200 0 -200 0 0 160 0 160 200 0
200 0 0 -160z"/>
<path d="M1733 2490 c-40 -16 -43 -38 -43 -319 l0 -270 26 -20 c26 -20 38 -21
330 -21 166 0 310 3 319 6 40 16 45 52 45 319 l0 257 -29 29 -29 29 -299 -1
c-164 0 -308 -4 -320 -9z m517 -310 l0 -160 -200 0 -200 0 0 160 0 160 200 0
200 0 0 -160z"/>
<path d="M2773 2490 c-40 -16 -43 -38 -43 -319 l0 -270 26 -20 c26 -20 38 -21
330 -21 166 0 310 3 319 6 40 16 45 52 45 319 l0 257 -29 29 -29 29 -299 -1
c-164 0 -308 -4 -320 -9z m517 -310 l0 -160 -200 0 -200 0 0 160 0 160 200 0
200 0 0 -160z"/>
<path d="M693 1770 c-47 -19 -57 -87 -18 -125 39 -40 96 -32 120 16 21 40 19
57 -14 90 -30 30 -50 34 -88 19z"/>
<path d="M1015 1768 c-51 -27 -60 -84 -20 -123 46 -47 118 -23 131 42 5 27 1
37 -24 63 -32 32 -54 36 -87 18z"/>
<path d="M695 1368 c-51 -27 -60 -84 -20 -123 39 -40 96 -32 120 16 21 40 19
57 -14 90 -31 31 -53 35 -86 17z"/>
<path d="M1015 1368 c-51 -27 -60 -84 -20 -123 46 -47 118 -23 131 42 5 27 1
37 -24 63 -32 32 -54 36 -87 18z"/>
<path d="M695 968 c-51 -27 -60 -84 -20 -123 39 -40 96 -32 120 16 21 40 19
57 -14 90 -31 31 -53 35 -86 17z"/>
<path d="M1015 968 c-51 -27 -60 -84 -20 -123 39 -40 96 -32 120 16 21 40 19
57 -14 90 -31 31 -53 35 -86 17z"/>
<path d="M4053 1770 c-47 -19 -57 -87 -18 -125 45 -46 115 -24 131 40 8 31
-17 72 -52 85 -29 12 -32 12 -61 0z"/>
<path d="M4375 1768 c-51 -27 -60 -84 -20 -123 39 -40 96 -32 120 16 21 40 19
57 -14 90 -31 31 -53 35 -86 17z"/>
<path d="M4053 1370 c-47 -19 -57 -87 -18 -125 45 -46 115 -24 131 40 8 31
-17 72 -52 85 -29 12 -32 12 -61 0z"/>
<path d="M4375 1368 c-51 -27 -60 -84 -20 -123 46 -47 118 -23 131 42 5 27 1
37 -24 63 -32 32 -54 36 -87 18z"/>
<path d="M4053 970 c-47 -19 -57 -87 -18 -125 46 -46 118 -23 131 41 11 56
-58 107 -113 84z"/>
<path d="M4375 968 c-51 -27 -60 -84 -20 -123 46 -47 118 -23 131 42 5 27 1
37 -24 63 -32 32 -54 36 -87 18z"/>
</g>
</svg>
