<?xml version="1.0" standalone="no"?>
<!DOCTYPE svg PUBLIC "-//W3C//DTD SVG 20010904//EN"
 "http://www.w3.org/TR/2001/REC-SVG-20010904/DTD/svg10.dtd">
<svg version="1.0" xmlns="http://www.w3.org/2000/svg"
 width="512.000000pt" height="512.000000pt" viewBox="0 0 512.000000 512.000000"
 preserveAspectRatio="xMidYMid meet">

<g transform="translate(0.000000,512.000000) scale(0.100000,-0.100000)"
fill="#000000" stroke="none">
<path d="M2525 4286 c-45 -21 -2066 -1547 -2088 -1578 -46 -62 1 -148 80 -148
31 0 61 19 210 130 95 72 175 130 178 130 3 0 5 -403 5 -896 0 -620 3 -909 11
-939 13 -52 65 -116 111 -138 42 -19 129 -22 686 -19 l444 2 29 29 29 29 0
695 0 695 283 7 c155 4 307 5 337 3 l55 -3 5 -703 5 -704 28 -24 28 -24 548 0
548 0 44 23 c29 16 54 40 74 72 l30 48 3 924 c1 508 5 923 8 923 2 0 82 -58
176 -130 142 -107 178 -130 206 -130 65 0 101 34 102 95 0 34 -6 47 -37 77
-21 19 -339 262 -708 538 -731 550 -1076 810 -1200 905 -150 116 -183 132
-230 111z m1480 -2282 l0 -979 -450 0 -450 0 -5 660 c-5 718 -3 687 -62 742
-54 51 -70 53 -476 55 -375 2 -378 2 -425 -21 -51 -25 -88 -66 -106 -120 -8
-24 -11 -223 -11 -678 l0 -643 -452 2 -453 3 0 979 0 980 723 543 722 544 723
-544 722 -544 0 -979z"/>
</g>
</svg>
