<?xml version="1.0" standalone="no"?>
<!DOCTYPE svg PUBLIC "-//W3C//DTD SVG 20010904//EN"
 "http://www.w3.org/TR/2001/REC-SVG-20010904/DTD/svg10.dtd">
<svg version="1.0" xmlns="http://www.w3.org/2000/svg"
 width="512.000000pt" height="512.000000pt" viewBox="0 0 512.000000 512.000000"
 preserveAspectRatio="xMidYMid meet">

<g transform="translate(0.000000,512.000000) scale(0.100000,-0.100000)"
fill="#000000" stroke="none">
<path d="M2086 5098 c-21 -20 -26 -40 -41 -146 -43 -316 -103 -500 -243 -754
-55 -99 -76 -193 -68 -309 11 -162 77 -317 184 -430 l62 -66 0 -320 c0 -344 4
-383 55 -484 14 -27 41 -67 60 -88 l35 -38 2 -1189 c3 -1161 3 -1190 23 -1218
36 -53 55 -56 405 -56 350 0 369 3 405 56 20 28 20 57 23 1218 l2 1188 36 42
c77 89 133 261 106 321 -16 34 -57 49 -93 35 -29 -12 -43 -40 -54 -104 -18
-107 -115 -225 -220 -267 -54 -21 -76 -23 -205 -23 -128 0 -152 2 -202 22 -76
30 -156 105 -193 179 l-30 58 0 375 0 375 27 57 c34 73 103 142 176 176 55 26
64 27 222 27 158 0 167 -1 222 -27 73 -34 142 -104 176 -176 23 -49 27 -75 32
-180 5 -115 7 -125 29 -143 32 -26 73 -24 99 4 18 20 22 35 22 96 l0 73 54 59
c73 79 119 158 156 266 58 176 49 344 -26 481 -21 37 -58 107 -83 157 -54 105
-84 130 -128 105 -16 -9 -34 -28 -41 -44 -13 -25 -11 -34 28 -114 22 -47 56
-111 75 -142 39 -64 65 -153 65 -220 -1 -103 -49 -252 -106 -327 l-25 -33 -26
47 c-37 71 -90 131 -154 177 l-58 41 0 201 c-1 215 -7 251 -50 297 -49 53 -65
57 -261 57 -196 0 -212 -4 -261 -57 -43 -46 -49 -81 -49 -298 l0 -202 -49 -32
c-59 -37 -121 -106 -159 -173 -15 -26 -29 -48 -32 -48 -3 0 -19 21 -36 48
-100 156 -120 349 -50 482 13 25 46 88 74 140 82 155 141 346 182 586 11 64
20 120 20 125 0 5 153 9 359 9 l360 0 6 -47 c17 -122 39 -157 96 -151 21 2 39
12 52 29 19 26 19 29 2 150 -15 107 -20 127 -41 147 l-25 22 -449 0 -449 0
-25 -22z m632 -1035 l2 -173 -160 0 -160 0 0 168 c0 93 3 172 7 176 4 3 75 5
157 4 l151 -3 3 -172z m-370 -1730 c81 -25 343 -25 424 0 31 9 59 17 62 17 3
0 6 -20 6 -45 l0 -45 -155 0 c-142 0 -157 -2 -175 -20 -12 -12 -20 -33 -20
-52 0 -69 25 -78 205 -78 l146 0 -3 -152 -3 -153 -155 -3 c-175 -3 -190 -8
-190 -72 0 -67 19 -74 196 -78 l154 -4 0 -149 0 -149 -149 0 c-135 0 -151 -2
-175 -21 -33 -26 -36 -79 -6 -109 18 -18 33 -20 175 -20 l156 0 -3 -152 -3
-153 -158 -5 c-142 -4 -160 -7 -173 -24 -23 -33 -18 -82 12 -105 24 -19 40
-21 175 -21 l149 0 0 -150 0 -150 -149 0 c-135 0 -151 -2 -175 -21 -30 -23
-35 -72 -12 -105 13 -17 31 -20 173 -24 l158 -5 3 -67 3 -68 -281 0 -280 0 0
180 0 180 153 0 c140 0 155 2 175 20 14 14 22 33 22 55 0 22 -8 41 -22 55 -20
18 -35 20 -175 20 l-154 0 3 153 3 152 156 5 c176 6 189 10 189 70 0 67 -19
75 -196 78 l-154 3 0 150 0 149 149 0 c135 0 151 2 175 21 30 23 35 72 12 105
-13 17 -31 20 -173 24 l-158 5 0 150 0 150 158 5 c142 4 160 7 173 24 23 33
18 82 -12 105 -24 19 -40 21 -175 21 l-149 0 0 160 c0 88 3 160 6 160 3 0 31
-8 62 -17z"/>
<path d="M2484 3170 c-95 -30 -184 -131 -199 -225 -21 -146 74 -283 220 -316
99 -22 217 22 276 104 132 182 16 431 -206 443 -33 2 -74 -1 -91 -6z m135
-158 c38 -20 71 -73 71 -112 0 -70 -73 -135 -142 -127 -64 8 -118 67 -118 129
0 60 69 128 130 128 14 0 41 -8 59 -18z"/>
</g>
</svg>
